<svg width="369.19" height="20.138" version="1.1" xmlns="http://www.w3.org/2000/svg" xmlns:cc="http://creativecommons.org/ns#" xmlns:dc="http://purl.org/dc/elements/1.1/" xmlns:rdf="http://www.w3.org/1999/02/22-rdf-syntax-ns#" xmlns:xlink="http://www.w3.org/1999/xlink">
 <metadata>
  <rdf:RDF>
   <cc:Work rdf:about="">
    <dc:format>image/svg+xml</dc:format>
    <dc:type rdf:resource="http://purl.org/dc/dcmitype/StillImage"/>
    <cc:license rdf:resource="MIT (c) L3D &lt;l3d@c3woc.de&gt;"/>
    <dc:creator>
     <cc:Agent>
      <dc:title>3D &lt;l3d@c3woc.de&gt;</dc:title>
     </cc:Agent>
    </dc:creator>
    <dc:rights>
     <cc:Agent>
      <dc:title>MIT License</dc:title>
     </cc:Agent>
    </dc:rights>
   </cc:Work>
  </rdf:RDF>
 </metadata>
 <defs>
  <linearGradient id="l3d_a" x2="0" y1="-.28392" y2="45.166" gradientTransform="scale(4.9067 .44281)" gradientUnits="userSpaceOnUse" xlink:href="#b"/>
 </defs>
 <linearGradient id="b" x2="0" y1="-.28392" y2="45.166" gradientTransform="scale(2.2583 .44281)" gradientUnits="userSpaceOnUse">
  <stop stop-color="#bbb" stop-opacity=".1" offset="0"/>
  <stop stop-opacity=".1" offset="1"/>
 </linearGradient>
 <clipPath id="a">
  <rect width="102" height="20" rx="3" fill="#fff"/>
 </clipPath>
 <path d="m366.56 0h-292.56v20h292.56c1.8715 0 2.5946-1.4283 2.5946-3.2998v-13.244c0-1.8715-0.72305-3.4566-2.5946-3.4566z" fill="#28a745" style="paint-order:stroke fill markers"/>
 <path d="m3.3782 0h86.558v20h-86.558c-1.8715 0-3.3782-1.5067-3.3782-3.3782v-13.244c0-1.8715 1.5067-3.3782 3.3782-3.3782z" fill="#4d4d4d" style="paint-order:stroke fill markers"/>
 <g fill="url(#l3d_a)" stroke-width="1.474">
  <path d="m3.3782 0h362.43c1.8715 0 3.3782 1.5067 3.3782 3.3782v13.381c0 1.8715-1.5067 3.3782-3.3782 3.3782h-362.43c-1.8715 0-3.3782-1.5067-3.3782-3.3782v-13.381c0-1.8715 1.5067-3.3782 3.3782-3.3782z" style="paint-order:stroke fill markers"/>
  <path d="m3.3782 0h362.43c1.8715 0 3.3782 1.5067 3.3782 3.3782v13.381c0 1.8715-1.5067 3.3782-3.3782 3.3782h-362.43c-1.8715 0-3.3782-1.5067-3.3782-3.3782v-13.381c0-1.8715 1.5067-3.3782 3.3782-3.3782z" style="paint-order:stroke fill markers"/>
  <path d="m3.3782 0h362.43c1.8715 0 3.3782 1.5067 3.3782 3.3782v13.381c0 1.8715-1.5067 3.3782-3.3782 3.3782h-362.43c-1.8715 0-3.3782-1.5067-3.3782-3.3782v-13.381c0-1.8715 1.5067-3.3782 3.3782-3.3782z" style="paint-order:stroke fill markers"/>
 </g>
 <g transform="translate(12)">
  <g transform="translate(.0053714 1.1929)" fill="#010101" fill-opacity=".3" stroke-width=".1" style="font-feature-settings:normal;font-variant-caps:normal;font-variant-ligatures:normal;font-variant-numeric:normal" aria-label="Marketplace">
   <path d="m7.064 5.9564h1.6167l2.0464 5.457 2.0571-5.457h1.6167v8.019h-1.0581v-7.0415l-2.0679 5.5h-1.0903l-2.0679-5.5v7.0415h-1.0527z"/>
   <path d="m19.246 10.952q-1.1978 0-1.6597 0.27392-0.46191 0.27393-0.46191 0.93457 0 0.52637 0.34375 0.83789 0.34912 0.30615 0.94531 0.30615 0.82178 0 1.3159-0.58008 0.49951-0.58545 0.49951-1.5522v-0.22021zm1.9712-0.4082v3.4321h-0.98828v-0.91309q-0.33838 0.54785-0.84326 0.81104-0.50488 0.25781-1.2354 0.25781-0.92383 0-1.4717-0.51562-0.54248-0.521-0.54248-1.3911 0-1.0151 0.67676-1.5308 0.68213-0.51562 2.0303-0.51562h1.3857v-0.09668q0-0.68213-0.45117-1.0527-0.4458-0.37598-1.2568-0.37598-0.51562 0-1.0044 0.12354-0.48877 0.12354-0.93994 0.37061v-0.91309q0.54248-0.20947 1.0527-0.31152 0.51025-0.10742 0.99365-0.10742 1.3052 0 1.9497 0.67676 0.64453 0.67676 0.64453 2.0518z"/>
   <path d="m26.738 8.8837q-0.1665-0.09668-0.36523-0.13965-0.19336-0.04834-0.42969-0.04834-0.83789 0-1.2891 0.54785-0.4458 0.54248-0.4458 1.563v3.1689h-0.99365v-6.0156h0.99365v0.93457q0.31152-0.54785 0.81104-0.81104 0.49951-0.26855 1.2139-0.26855 0.10205 0 0.22559 0.016113 0.12354 0.010742 0.27393 0.037598z"/>
   <path d="m27.737 5.618h0.99365v4.936l2.9487-2.5942h1.2622l-3.1904 2.8145 3.3247 3.2012h-1.2891l-3.0562-2.938v2.938h-0.99365z"/>
   <path d="m38.898 10.721v0.4834h-4.5439q0.06445 1.0205 0.6123 1.5576 0.55322 0.53174 1.5361 0.53174 0.56934 0 1.1011-0.13965 0.53711-0.13965 1.0635-0.41894v0.93457q-0.53174 0.22559-1.0903 0.34375t-1.1333 0.11816q-1.4395 0-2.2827-0.83789-0.83789-0.83789-0.83789-2.2666 0-1.4771 0.79492-2.3418 0.80029-0.87012 2.1538-0.87012 1.2139 0 1.9175 0.78418 0.70898 0.77881 0.70898 2.1216zm-0.98828-0.29004q-0.010742-0.81104-0.45654-1.2944-0.44043-0.4834-1.1709-0.4834-0.82715 0-1.3267 0.46729-0.49414 0.46729-0.56934 1.3159z"/>
   <path d="m41.498 6.2518v1.708h2.0356v0.76807h-2.0356v3.2656q0 0.73584 0.19873 0.94531 0.2041 0.20947 0.82178 0.20947h1.0151v0.82715h-1.0151q-1.144 0-1.5791-0.42432-0.43506-0.42969-0.43506-1.5576v-3.2656h-0.7251v-0.76807h0.7251v-1.708z"/>
   <path d="m45.79 13.073v3.1904h-0.99365v-8.3037h0.99365v0.91309q0.31152-0.53711 0.78418-0.79492 0.47803-0.26318 1.1387-0.26318 1.0957 0 1.7778 0.87012 0.6875 0.87012 0.6875 2.2881 0 1.418-0.6875 2.2881-0.68213 0.87012-1.7778 0.87012-0.66064 0-1.1387-0.25781-0.47266-0.26318-0.78418-0.80029zm3.3623-2.1001q0-1.0903-0.45117-1.708-0.4458-0.62305-1.23-0.62305-0.78418 0-1.2354 0.62305-0.4458 0.61768-0.4458 1.708t0.4458 1.7134q0.45117 0.61768 1.2354 0.61768 0.78418 0 1.23-0.61768 0.45117-0.62305 0.45117-1.7134z"/>
   <path d="m51.816 5.618h0.98828v8.3574h-0.98828z"/>
   <path d="m57.606 10.952q-1.1978 0-1.6597 0.27392-0.46191 0.27393-0.46191 0.93457 0 0.52637 0.34375 0.83789 0.34912 0.30615 0.94531 0.30615 0.82178 0 1.3159-0.58008 0.49951-0.58545 0.49951-1.5522v-0.22021zm1.9712-0.4082v3.4321h-0.98828v-0.91309q-0.33838 0.54785-0.84326 0.81104-0.50488 0.25781-1.2354 0.25781-0.92383 0-1.4717-0.51562-0.54248-0.521-0.54248-1.3911 0-1.0151 0.67676-1.5308 0.68213-0.51562 2.0303-0.51562h1.3857v-0.09668q0-0.68213-0.45117-1.0527-0.4458-0.37598-1.2568-0.37598-0.51562 0-1.0044 0.12354-0.48877 0.12354-0.93994 0.37061v-0.91309q0.54248-0.20947 1.0527-0.31152 0.51025-0.10742 0.99365-0.10742 1.3052 0 1.9497 0.67676t0.64453 2.0518z"/>
   <path d="m65.942 8.1908v0.92383q-0.41894-0.23096-0.84326-0.34375-0.41894-0.11816-0.84863-0.11816-0.96143 0-1.4932 0.6123-0.53174 0.60693-0.53174 1.708 0 1.1011 0.53174 1.7134 0.53174 0.60693 1.4932 0.60693 0.42969 0 0.84863-0.11279 0.42432-0.11816 0.84326-0.34912v0.91309q-0.41357 0.19336-0.85938 0.29004-0.44043 0.09668-0.93994 0.09668-1.3589 0-2.1592-0.854t-0.80029-2.3042q0-1.4717 0.80566-2.3149 0.81104-0.84326 2.2183-0.84326 0.45654 0 0.8916 0.09668 0.43506 0.091309 0.84326 0.2793z"/>
   <path d="m72.806 10.721v0.4834h-4.5439q0.06445 1.0205 0.6123 1.5576 0.55322 0.53174 1.5361 0.53174 0.56934 0 1.1011-0.13965 0.53711-0.13965 1.0635-0.41894v0.93457q-0.53174 0.22559-1.0903 0.34375t-1.1333 0.11816q-1.4395 0-2.2827-0.83789-0.83789-0.83789-0.83789-2.2666 0-1.4771 0.79492-2.3418 0.80029-0.87012 2.1538-0.87012 1.2139 0 1.9175 0.78418 0.70898 0.77881 0.70898 2.1216zm-0.98828-0.29004q-0.01074-0.81104-0.45654-1.2944-0.44043-0.4834-1.1709-0.4834-0.82715 0-1.3267 0.46729-0.49414 0.46729-0.56934 1.3159z"/>
  </g>
  <g transform="translate(3.9475e-7 .1778)" fill="#fff" style="font-feature-settings:normal;font-variant-caps:normal;font-variant-ligatures:normal;font-variant-numeric:normal" aria-label="Marketplace">
   <path d="m7.064 5.9564h1.6167l2.0464 5.457 2.0571-5.457h1.6167v8.019h-1.0581v-7.0415l-2.0679 5.5h-1.0903l-2.0679-5.5v7.0415h-1.0527z"/>
   <path d="m19.246 10.952q-1.1978 0-1.6597 0.27392-0.46191 0.27393-0.46191 0.93457 0 0.52637 0.34375 0.83789 0.34912 0.30615 0.94531 0.30615 0.82178 0 1.3159-0.58008 0.49951-0.58545 0.49951-1.5522v-0.22021zm1.9712-0.4082v3.4321h-0.98828v-0.91309q-0.33838 0.54785-0.84326 0.81104-0.50488 0.25781-1.2354 0.25781-0.92383 0-1.4717-0.51562-0.54248-0.521-0.54248-1.3911 0-1.0151 0.67676-1.5308 0.68213-0.51562 2.0303-0.51562h1.3857v-0.09668q0-0.68213-0.45117-1.0527-0.4458-0.37598-1.2568-0.37598-0.51562 0-1.0044 0.12354-0.48877 0.12354-0.93994 0.37061v-0.91309q0.54248-0.20947 1.0527-0.31152 0.51025-0.10742 0.99365-0.10742 1.3052 0 1.9497 0.67676 0.64453 0.67676 0.64453 2.0518z"/>
   <path d="m26.738 8.8837q-0.1665-0.09668-0.36523-0.13965-0.19336-0.04834-0.42969-0.04834-0.83789 0-1.2891 0.54785-0.4458 0.54248-0.4458 1.563v3.1689h-0.99365v-6.0156h0.99365v0.93457q0.31152-0.54785 0.81104-0.81104 0.49951-0.26855 1.2139-0.26855 0.10205 0 0.22559 0.016113 0.12354 0.010742 0.27393 0.037598z"/>
   <path d="m27.737 5.618h0.99365v4.936l2.9487-2.5942h1.2622l-3.1904 2.8145 3.3247 3.2012h-1.2891l-3.0562-2.938v2.938h-0.99365z"/>
   <path d="m38.898 10.721v0.4834h-4.5439q0.06445 1.0205 0.6123 1.5576 0.55322 0.53174 1.5361 0.53174 0.56934 0 1.1011-0.13965 0.53711-0.13965 1.0635-0.41894v0.93457q-0.53174 0.22559-1.0903 0.34375t-1.1333 0.11816q-1.4395 0-2.2827-0.83789-0.83789-0.83789-0.83789-2.2666 0-1.4771 0.79492-2.3418 0.80029-0.87012 2.1538-0.87012 1.2139 0 1.9175 0.78418 0.70898 0.77881 0.70898 2.1216zm-0.98828-0.29004q-0.010742-0.81104-0.45654-1.2944-0.44043-0.4834-1.1709-0.4834-0.82715 0-1.3267 0.46729-0.49414 0.46729-0.56934 1.3159z"/>
   <path d="m41.498 6.2518v1.708h2.0356v0.76807h-2.0356v3.2656q0 0.73584 0.19873 0.94531 0.2041 0.20947 0.82178 0.20947h1.0151v0.82715h-1.0151q-1.144 0-1.5791-0.42432-0.43506-0.42969-0.43506-1.5576v-3.2656h-0.7251v-0.76807h0.7251v-1.708z"/>
   <path d="m45.79 13.073v3.1904h-0.99365v-8.3037h0.99365v0.91309q0.31152-0.53711 0.78418-0.79492 0.47803-0.26318 1.1387-0.26318 1.0957 0 1.7778 0.87012 0.6875 0.87012 0.6875 2.2881 0 1.418-0.6875 2.2881-0.68213 0.87012-1.7778 0.87012-0.66064 0-1.1387-0.25781-0.47266-0.26318-0.78418-0.80029zm3.3623-2.1001q0-1.0903-0.45117-1.708-0.4458-0.62305-1.23-0.62305-0.78418 0-1.2354 0.62305-0.4458 0.61768-0.4458 1.708t0.4458 1.7134q0.45117 0.61768 1.2354 0.61768 0.78418 0 1.23-0.61768 0.45117-0.62305 0.45117-1.7134z"/>
   <path d="m51.816 5.618h0.98828v8.3574h-0.98828z"/>
   <path d="m57.606 10.952q-1.1978 0-1.6597 0.27392-0.46191 0.27393-0.46191 0.93457 0 0.52637 0.34375 0.83789 0.34912 0.30615 0.94531 0.30615 0.82178 0 1.3159-0.58008 0.49951-0.58545 0.49951-1.5522v-0.22021zm1.9712-0.4082v3.4321h-0.98828v-0.91309q-0.33838 0.54785-0.84326 0.81104-0.50488 0.25781-1.2354 0.25781-0.92383 0-1.4717-0.51562-0.54248-0.521-0.54248-1.3911 0-1.0151 0.67676-1.5308 0.68213-0.51562 2.0303-0.51562h1.3857v-0.09668q0-0.68213-0.45117-1.0527-0.4458-0.37598-1.2568-0.37598-0.51562 0-1.0044 0.12354-0.48877 0.12354-0.93994 0.37061v-0.91309q0.54248-0.20947 1.0527-0.31152 0.51025-0.10742 0.99365-0.10742 1.3052 0 1.9497 0.67676t0.64453 2.0518z"/>
   <path d="m65.942 8.1908v0.92383q-0.41894-0.23096-0.84326-0.34375-0.41894-0.11816-0.84863-0.11816-0.96143 0-1.4932 0.6123-0.53174 0.60693-0.53174 1.708 0 1.1011 0.53174 1.7134 0.53174 0.60693 1.4932 0.60693 0.42969 0 0.84863-0.11279 0.42432-0.11816 0.84326-0.34912v0.91309q-0.41357 0.19336-0.85938 0.29004-0.44043 0.09668-0.93994 0.09668-1.3589 0-2.1592-0.854t-0.80029-2.3042q0-1.4717 0.80566-2.3149 0.81104-0.84326 2.2183-0.84326 0.45654 0 0.8916 0.09668 0.43506 0.091309 0.84326 0.2793z"/>
   <path d="m72.806 10.721v0.4834h-4.5439q0.06445 1.0205 0.6123 1.5576 0.55322 0.53174 1.5361 0.53174 0.56934 0 1.1011-0.13965 0.53711-0.13965 1.0635-0.41894v0.93457q-0.53174 0.22559-1.0903 0.34375t-1.1333 0.11816q-1.4395 0-2.2827-0.83789-0.83789-0.83789-0.83789-2.2666 0-1.4771 0.79492-2.3418 0.80029-0.87012 2.1538-0.87012 1.2139 0 1.9175 0.78418 0.70898 0.77881 0.70898 2.1216zm-0.98828-0.29004q-0.01074-0.81104-0.45654-1.2944-0.44043-0.4834-1.1709-0.4834-0.82715 0-1.3267 0.46729-0.49414 0.46729-0.56934 1.3159z"/>
  </g>
 </g>
 <g transform="matrix(.43 0 0 .43 4.7587 4.259)" color="#ffffff" fill="none" stroke-linecap="round" stroke-linejoin="round" stroke-width="2">
  <path d="m22.545 14.192c0 6.1985-5.0249 11.223-11.223 11.223-6.1985 0-11.223-5.0249-11.223-11.223 0-6.1985 5.0249-11.223 11.223-11.223 6.1985 0 11.223 5.0249 11.223 11.223zm-12.522 5.9427 8.327-8.327c0.28276-0.28276 0.28276-0.74124 0-1.024l-1.024-1.024c-0.28276-0.2828-0.74124-0.2828-1.024 0l-6.791 6.791-3.1706-3.1706c-0.28276-0.28276-0.74124-0.28276-1.024 0l-1.024 1.024c-0.28276 0.28276-0.28276 0.74124 0 1.024l4.7066 4.7066c0.2828 0.2828 0.74124 0.2828 1.024 3.9e-5z" fill="#010101" fill-opacity=".3" stop-color="#000000" style="-inkscape-stroke:none;font-variation-settings:normal"/>
  <path d="m22.545 12.045c0 6.1985-5.0249 11.223-11.223 11.223-6.1985 0-11.223-5.0249-11.223-11.223 0-6.1985 5.0249-11.223 11.223-11.223 6.1985 0 11.223 5.0249 11.223 11.223zm-12.522 5.9427 8.327-8.327c0.28276-0.28276 0.28276-0.74124 0-1.024l-1.024-1.024c-0.28276-0.2828-0.74124-0.2828-1.024 0l-6.791 6.791-3.1706-3.1706c-0.28276-0.28276-0.74124-0.28276-1.024 0l-1.024 1.024c-0.28276 0.28276-0.28276 0.74124 0 1.024l4.7066 4.7066c0.2828 0.2828 0.74124 0.2828 1.024 3.9e-5z" fill="currentColor" style="-inkscape-stroke:none"/>
  <path d="m11.322 0.77734c-6.223 0-11.27 5.0446-11.27 11.268 0 6.223 5.0466 11.27 11.27 11.27 6.223 0 11.268-5.0466 11.268-11.27 0-6.223-5.0446-11.268-11.268-11.268zm0 0.089844c6.1741 0 11.178 5.0037 11.178 11.178 0 6.1741-5.0037 11.178-11.178 11.178-6.1741 0-11.178-5.0037-11.178-11.178 0-6.1741 5.0037-11.178 11.178-11.178zm4.9492 6.7129-6.7598 6.7598-3.1387-3.1387c-0.30005-0.30005-0.78779-0.30005-1.0879 0l-1.0234 1.0234c-0.30005 0.30005-0.30005 0.78784 0 1.0879l4.7051 4.707c0.30009 0.3001 0.78975 0.30005 1.0898 0l8.3262-8.3262c0.30005-0.30005 0.30005-0.78784 0-1.0879l-1.0234-1.0254c-0.30005-0.3001-0.7878-0.3001-1.0879 0zm0.0625 0.064453c0.26551-0.26551 0.69548-0.2655 0.96094 0l1.0234 1.0234c0.26546 0.26546 0.26546 0.69548 0 0.96094l-8.3262 8.3262c-0.26551 0.26547-0.69543 0.26551-0.96094 0l-4.707-4.7051c-0.26546-0.26546-0.26546-0.69548 0-0.96094l1.0254-1.0234c0.26551-0.26546 0.69352-0.26546 0.95898 0l3.1719 3.1699a0.04526 0.04526 0 0 0 0.0625 0z" fill="#fff" style="-inkscape-stroke:none"/>
 </g>
 <g fill-opacity=".3" style="font-variant-caps:normal;font-variant-ligatures:normal;font-variant-numeric:normal" aria-label="roles-ansible/check-ansible-debian-latest-action">
  <path d="m99.473 9.9974q-0.1665-0.09668-0.36523-0.13965-0.19336-0.04834-0.42969-0.04834-0.83789 0-1.2891 0.54785-0.4458 0.54248-0.4458 1.563v3.1689h-0.99365v-6.0156h0.99365v0.93457q0.31152-0.54785 0.81104-0.81103 0.49951-0.26855 1.2139-0.26855 0.10205 0 0.22559 0.016113 0.12354 0.010742 0.27393 0.037598z" style="font-feature-settings:normal;font-variant-caps:normal;font-variant-ligatures:normal;font-variant-numeric:normal"/>
  <path d="m102.6 9.7664q-0.79492 0-1.2568 0.62305-0.46191 0.61768-0.46191 1.6973 0 1.0796 0.45654 1.7026 0.46192 0.61768 1.2622 0.61768 0.78955 0 1.2515-0.62305 0.46191-0.62305 0.46191-1.6973 0-1.0688-0.46191-1.6919-0.46192-0.62842-1.2515-0.62842zm0-0.83789q1.2891 0 2.0249 0.83789 0.73584 0.83789 0.73584 2.3203 0 1.477-0.73584 2.3203-0.73584 0.83789-2.0249 0.83789-1.2944 0-2.0303-0.83789-0.73047-0.84326-0.73047-2.3203 0-1.4824 0.73047-2.3203 0.73584-0.83789 2.0303-0.83789z" style="font-feature-settings:normal;font-variant-caps:normal;font-variant-ligatures:normal;font-variant-numeric:normal"/>
  <path d="m107 6.7318h0.98828v8.3574h-0.98828z" style="font-feature-settings:normal;font-variant-caps:normal;font-variant-ligatures:normal;font-variant-numeric:normal"/>
  <path d="m115.2 11.834v0.4834h-4.544q0.0645 1.0205 0.61231 1.5576 0.55322 0.53174 1.5361 0.53174 0.56933 0 1.1011-0.13965 0.53711-0.13965 1.0635-0.41895v0.93457q-0.53174 0.22559-1.0903 0.34375-0.5586 0.11816-1.1333 0.11816-1.4395 0-2.2827-0.83789-0.83789-0.83789-0.83789-2.2666 0-1.4771 0.79492-2.3418 0.8003-0.87012 2.1538-0.87012 1.2139 0 1.9175 0.78418 0.70899 0.77881 0.70899 2.1216zm-0.98828-0.29004q-0.0108-0.81104-0.45655-1.2944-0.44043-0.4834-1.1709-0.4834-0.82714 0-1.3267 0.46728-0.49414 0.46728-0.56933 1.3159z" style="font-feature-settings:normal;font-variant-caps:normal;font-variant-ligatures:normal;font-variant-numeric:normal"/>
  <path d="m120.66 9.2508v0.93457q-0.41895-0.21484-0.87012-0.32227-0.45117-0.10742-0.93457-0.10742-0.73584 0-1.1064 0.22559-0.36524 0.22559-0.36524 0.67676 0 0.34375 0.26318 0.54248 0.26319 0.19336 1.0581 0.37061l0.33838 0.0752q1.0527 0.22559 1.4932 0.63916 0.4458 0.4082 0.4458 1.144 0 0.83789-0.66601 1.3267-0.66065 0.48877-1.8208 0.48877-0.4834 0-1.0098-0.09668-0.52099-0.09131-1.1011-0.2793v-1.0205q0.54785 0.28467 1.0796 0.42969 0.53174 0.13965 1.0527 0.13965 0.69824 0 1.0742-0.23633 0.37598-0.2417 0.37598-0.67676 0-0.40283-0.27393-0.61768-0.26855-0.21484-1.187-0.41358l-0.34375-0.08057q-0.91846-0.19336-1.3267-0.59082-0.4082-0.40283-0.4082-1.1011 0-0.84863 0.60156-1.3105t1.708-0.46191q0.54785 0 1.0312 0.080566 0.48339 0.080566 0.8916 0.2417z" style="font-feature-settings:normal;font-variant-caps:normal;font-variant-ligatures:normal;font-variant-numeric:normal"/>
  <path d="m122.05 11.636h2.895v0.88086h-2.895z" style="font-feature-settings:normal;font-variant-caps:normal;font-variant-ligatures:normal;font-variant-numeric:normal"/>
  <path d="m129.26 12.065q-1.1978 0-1.6597 0.27393-0.46191 0.27393-0.46191 0.93457 0 0.52637 0.34375 0.83789 0.34912 0.30615 0.94531 0.30615 0.82178 0 1.3159-0.58008 0.49951-0.58545 0.49951-1.5522v-0.22022zm1.9712-0.4082v3.4321h-0.98828v-0.91309q-0.33838 0.54785-0.84326 0.81104-0.50489 0.25781-1.2354 0.25781-0.92383 0-1.4717-0.51562-0.54248-0.521-0.54248-1.3911 0-1.0151 0.67675-1.5308 0.68213-0.51562 2.0303-0.51562h1.3857v-0.09668q0-0.68213-0.45117-1.0527-0.4458-0.37598-1.2568-0.37598-0.51562 0-1.0044 0.12354-0.48877 0.12353-0.93994 0.37061v-0.91309q0.54248-0.20947 1.0527-0.31152 0.51025-0.10742 0.99365-0.10742 1.3052 0 1.9497 0.67676 0.64453 0.67676 0.64453 2.0518z" style="font-feature-settings:normal;font-variant-caps:normal;font-variant-ligatures:normal;font-variant-numeric:normal"/>
  <path d="m138.26 11.458v3.6309h-0.98828v-3.5986q0-0.854-0.33301-1.2783-0.333-0.42432-0.99902-0.42432-0.80029 0-1.2622 0.51025-0.46191 0.51025-0.46191 1.3911v3.3999h-0.99365v-6.0156h0.99365v0.93457q0.35449-0.54248 0.83252-0.81103 0.4834-0.26855 1.1118-0.26855 1.0366 0 1.5684 0.64453 0.53174 0.63916 0.53174 1.8853z" style="font-feature-settings:normal;font-variant-caps:normal;font-variant-ligatures:normal;font-variant-numeric:normal"/>
  <path d="m144.07 9.2508v0.93457q-0.41895-0.21484-0.87012-0.32227-0.45117-0.10742-0.93457-0.10742-0.73584 0-1.1064 0.22559-0.36523 0.22559-0.36523 0.67676 0 0.34375 0.26318 0.54248 0.26319 0.19336 1.0581 0.37061l0.33838 0.0752q1.0527 0.22559 1.4932 0.63916 0.4458 0.4082 0.4458 1.144 0 0.83789-0.66601 1.3267-0.66065 0.48877-1.8208 0.48877-0.48339 0-1.0098-0.09668-0.521-0.09131-1.1011-0.2793v-1.0205q0.54786 0.28467 1.0796 0.42969 0.53174 0.13965 1.0527 0.13965 0.69824 0 1.0742-0.23633 0.37597-0.2417 0.37597-0.67676 0-0.40283-0.27392-0.61768-0.26856-0.21484-1.187-0.41358l-0.34375-0.08057q-0.91846-0.19336-1.3267-0.59082-0.40821-0.40283-0.40821-1.1011 0-0.84863 0.60157-1.3105 0.60156-0.46191 1.708-0.46191 0.54786 0 1.0312 0.080566 0.4834 0.080566 0.89161 0.2417z" style="font-feature-settings:normal;font-variant-caps:normal;font-variant-ligatures:normal;font-variant-numeric:normal"/>
  <path d="m145.97 9.0736h0.98828v6.0156h-0.98828zm0-2.3418h0.98828v1.2515h-0.98828z" style="font-feature-settings:normal;font-variant-caps:normal;font-variant-ligatures:normal;font-variant-numeric:normal"/>
  <path d="m153.34 12.087q0-1.0903-0.45117-1.708-0.4458-0.62305-1.23-0.62305t-1.2354 0.62305q-0.4458 0.61768-0.4458 1.708t0.4458 1.7134q0.45117 0.61768 1.2354 0.61768t1.23-0.61768q0.45117-0.62305 0.45117-1.7134zm-3.3623-2.1001q0.31152-0.53711 0.78418-0.79492 0.47803-0.26318 1.1387-0.26318 1.0957 0 1.7778 0.87012 0.6875 0.87012 0.6875 2.2881 0 1.418-0.6875 2.2881-0.68213 0.87012-1.7778 0.87012-0.66064 0-1.1387-0.25781-0.47266-0.26318-0.78418-0.80029v0.90234h-0.99365v-8.3574h0.99365z" style="font-feature-settings:normal;font-variant-caps:normal;font-variant-ligatures:normal;font-variant-numeric:normal"/>
  <path d="m156 6.7318h0.98828v8.3574h-0.98828z" style="font-feature-settings:normal;font-variant-caps:normal;font-variant-ligatures:normal;font-variant-numeric:normal"/>
  <path d="m164.21 11.834v0.4834h-4.544q0.0644 1.0205 0.61231 1.5576 0.55322 0.53174 1.5361 0.53174 0.56933 0 1.1011-0.13965 0.53711-0.13965 1.0635-0.41895v0.93457q-0.53174 0.22559-1.0903 0.34375-0.5586 0.11816-1.1333 0.11816-1.4395 0-2.2827-0.83789-0.83789-0.83789-0.83789-2.2666 0-1.4771 0.79492-2.3418 0.8003-0.87012 2.1538-0.87012 1.2139 0 1.9175 0.78418 0.70899 0.77881 0.70899 2.1216zm-0.98829-0.29004q-0.0107-0.81104-0.45654-1.2944-0.44043-0.4834-1.1709-0.4834-0.82715 0-1.3267 0.46728-0.49414 0.46728-0.56933 1.3159z" style="font-feature-settings:normal;font-variant-caps:normal;font-variant-ligatures:normal;font-variant-numeric:normal"/>
  <path d="m167.58 7.0702h0.91309l-2.793 9.0396h-0.91308z" style="font-feature-settings:normal;font-variant-caps:normal;font-variant-ligatures:normal;font-variant-numeric:normal"/>
  <path d="m173.86 9.3045v0.92383q-0.41894-0.23096-0.84326-0.34375-0.41894-0.11816-0.84863-0.11816-0.96143 0-1.4932 0.6123-0.53173 0.60693-0.53173 1.708 0 1.1011 0.53173 1.7134 0.53174 0.60693 1.4932 0.60693 0.42969 0 0.84863-0.11279 0.42432-0.11816 0.84326-0.34912v0.91309q-0.41357 0.19336-0.85937 0.29004-0.44043 0.09668-0.93994 0.09668-1.3589 0-2.1592-0.854-0.8003-0.854-0.8003-2.3042 0-1.4717 0.80567-2.3149 0.81103-0.84326 2.2183-0.84326 0.45654 0 0.8916 0.09668 0.43506 0.091309 0.84326 0.2793z" style="font-feature-settings:normal;font-variant-caps:normal;font-variant-ligatures:normal;font-variant-numeric:normal"/>
  <path d="m180.58 11.458v3.6309h-0.98828v-3.5986q0-0.854-0.33301-1.2783-0.33301-0.42432-0.99902-0.42432-0.80029 0-1.2622 0.51025-0.46191 0.51025-0.46191 1.3911v3.3999h-0.99366v-8.3574h0.99366v3.2764q0.35449-0.54248 0.83252-0.81103 0.4834-0.26855 1.1118-0.26855 1.0366 0 1.5684 0.64453 0.53174 0.63916 0.53174 1.8853z" style="font-feature-settings:normal;font-variant-caps:normal;font-variant-ligatures:normal;font-variant-numeric:normal"/>
  <path d="m187.7 11.834v0.4834h-4.544q0.0645 1.0205 0.61231 1.5576 0.55322 0.53174 1.5361 0.53174 0.56934 0 1.1011-0.13965 0.53711-0.13965 1.0635-0.41895v0.93457q-0.53174 0.22559-1.0903 0.34375t-1.1333 0.11816q-1.4394 0-2.2827-0.83789-0.8379-0.83789-0.8379-2.2666 0-1.4771 0.79493-2.3418 0.80029-0.87012 2.1538-0.87012 1.2139 0 1.9175 0.78418 0.70898 0.77881 0.70898 2.1216zm-0.98828-0.29004q-0.0107-0.81104-0.45654-1.2944-0.44043-0.4834-1.1709-0.4834-0.82715 0-1.3267 0.46728-0.49414 0.46728-0.56934 1.3159z" style="font-feature-settings:normal;font-variant-caps:normal;font-variant-ligatures:normal;font-variant-numeric:normal"/>
  <path d="m193.65 9.3045v0.92383q-0.41894-0.23096-0.84326-0.34375-0.41895-0.11816-0.84863-0.11816-0.96143 0-1.4932 0.6123-0.53173 0.60693-0.53173 1.708 0 1.1011 0.53173 1.7134 0.53174 0.60693 1.4932 0.60693 0.42968 0 0.84863-0.11279 0.42432-0.11816 0.84326-0.34912v0.91309q-0.41357 0.19336-0.85937 0.29004-0.44043 0.09668-0.93994 0.09668-1.3589 0-2.1592-0.854-0.8003-0.854-0.8003-2.3042 0-1.4717 0.80567-2.3149 0.81103-0.84326 2.2183-0.84326 0.45654 0 0.8916 0.09668 0.43506 0.091309 0.84326 0.2793z" style="font-feature-settings:normal;font-variant-caps:normal;font-variant-ligatures:normal;font-variant-numeric:normal"/>
  <path d="m195.33 6.7318h0.99366v4.936l2.9487-2.5942h1.2622l-3.1904 2.8145 3.3247 3.2012h-1.2891l-3.0562-2.938v2.938h-0.99366z" style="font-feature-settings:normal;font-variant-caps:normal;font-variant-ligatures:normal;font-variant-numeric:normal"/>
  <path d="m201.24 11.636h2.895v0.88086h-2.895z" style="font-feature-settings:normal;font-variant-caps:normal;font-variant-ligatures:normal;font-variant-numeric:normal"/>
  <path d="m208.44 12.065q-1.1978 0-1.6597 0.27393-0.46192 0.27393-0.46192 0.93457 0 0.52637 0.34375 0.83789 0.34912 0.30615 0.94531 0.30615 0.82178 0 1.3159-0.58008 0.49951-0.58545 0.49951-1.5522v-0.22022zm1.9712-0.4082v3.4321h-0.98829v-0.91309q-0.33837 0.54785-0.84326 0.81104-0.50488 0.25781-1.2354 0.25781-0.92383 0-1.4717-0.51562-0.54248-0.521-0.54248-1.3911 0-1.0151 0.67676-1.5308 0.68213-0.51562 2.0303-0.51562h1.3857v-0.09668q0-0.68213-0.45117-1.0527-0.4458-0.37598-1.2568-0.37598-0.51563 0-1.0044 0.12354-0.48877 0.12353-0.93994 0.37061v-0.91309q0.54248-0.20947 1.0527-0.31152 0.51026-0.10742 0.99366-0.10742 1.3052 0 1.9497 0.67676 0.64454 0.67676 0.64454 2.0518z" style="font-feature-settings:normal;font-variant-caps:normal;font-variant-ligatures:normal;font-variant-numeric:normal"/>
  <path d="m217.45 11.458v3.6309h-0.98828v-3.5986q0-0.854-0.33301-1.2783-0.33301-0.42432-0.99902-0.42432-0.8003 0-1.2622 0.51025-0.46192 0.51025-0.46192 1.3911v3.3999h-0.99365v-6.0156h0.99365v0.93457q0.3545-0.54248 0.83252-0.81103 0.4834-0.26855 1.1118-0.26855 1.0366 0 1.5684 0.64453 0.53174 0.63916 0.53174 1.8853z" style="font-feature-settings:normal;font-variant-caps:normal;font-variant-ligatures:normal;font-variant-numeric:normal"/>
  <path d="m223.26 9.2508v0.93457q-0.41894-0.21484-0.87012-0.32227-0.45117-0.10742-0.93457-0.10742-0.73584 0-1.1064 0.22559-0.36524 0.22559-0.36524 0.67676 0 0.34375 0.26319 0.54248 0.26318 0.19336 1.0581 0.37061l0.33838 0.0752q1.0527 0.22559 1.4932 0.63916 0.4458 0.4082 0.4458 1.144 0 0.83789-0.66602 1.3267-0.66064 0.48877-1.8208 0.48877-0.4834 0-1.0098-0.09668-0.52099-0.09131-1.1011-0.2793v-1.0205q0.54785 0.28467 1.0796 0.42969 0.53174 0.13965 1.0527 0.13965 0.69825 0 1.0742-0.23633 0.37598-0.2417 0.37598-0.67676 0-0.40283-0.27393-0.61768-0.26855-0.21484-1.187-0.41358l-0.34375-0.08057q-0.91845-0.19336-1.3267-0.59082-0.4082-0.40283-0.4082-1.1011 0-0.84863 0.60156-1.3105t1.708-0.46191q0.54785 0 1.0312 0.080566t0.8916 0.2417z" style="font-feature-settings:normal;font-variant-caps:normal;font-variant-ligatures:normal;font-variant-numeric:normal"/>
  <path d="m225.15 9.0736h0.98828v6.0156h-0.98828zm0-2.3418h0.98828v1.2515h-0.98828z" style="font-feature-settings:normal;font-variant-caps:normal;font-variant-ligatures:normal;font-variant-numeric:normal"/>
  <path d="m232.53 12.087q0-1.0903-0.45117-1.708-0.4458-0.62305-1.23-0.62305t-1.2354 0.62305q-0.4458 0.61768-0.4458 1.708t0.4458 1.7134q0.45118 0.61768 1.2354 0.61768t1.23-0.61768q0.45117-0.62305 0.45117-1.7134zm-3.3623-2.1001q0.31153-0.53711 0.78418-0.79492 0.47803-0.26318 1.1387-0.26318 1.0957 0 1.7778 0.87012 0.6875 0.87012 0.6875 2.2881 0 1.418-0.6875 2.2881-0.68213 0.87012-1.7778 0.87012-0.66065 0-1.1387-0.25781-0.47265-0.26318-0.78418-0.80029v0.90234h-0.99365v-8.3574h0.99365z" style="font-feature-settings:normal;font-variant-caps:normal;font-variant-ligatures:normal;font-variant-numeric:normal"/>
  <path d="m235.19 6.7318h0.98828v8.3574h-0.98828z" style="font-feature-settings:normal;font-variant-caps:normal;font-variant-ligatures:normal;font-variant-numeric:normal"/>
  <path d="m243.39 11.834v0.4834h-4.5439q0.0644 1.0205 0.6123 1.5576 0.55322 0.53174 1.5361 0.53174 0.56934 0 1.1011-0.13965 0.53711-0.13965 1.0635-0.41895v0.93457q-0.53173 0.22559-1.0903 0.34375-0.55859 0.11816-1.1333 0.11816-1.4394 0-2.2827-0.83789-0.83789-0.83789-0.83789-2.2666 0-1.4771 0.79492-2.3418 0.80029-0.87012 2.1538-0.87012 1.2139 0 1.9175 0.78418 0.70898 0.77881 0.70898 2.1216zm-0.98828-0.29004q-0.0107-0.81104-0.45654-1.2944-0.44043-0.4834-1.1709-0.4834-0.82715 0-1.3267 0.46728-0.49414 0.46728-0.56934 1.3159z" style="font-feature-settings:normal;font-variant-caps:normal;font-variant-ligatures:normal;font-variant-numeric:normal"/>
  <path d="m244.51 11.636h2.895v0.88086h-2.895z" style="font-feature-settings:normal;font-variant-caps:normal;font-variant-ligatures:normal;font-variant-numeric:normal"/>
  <path d="m252.94 9.9867v-3.2549h0.98828v8.3574h-0.98828v-0.90234q-0.31153 0.53711-0.78955 0.80029-0.47266 0.25781-1.1387 0.25781-1.0903 0-1.7778-0.87012-0.68213-0.87012-0.68213-2.2881 0-1.418 0.68213-2.2881 0.6875-0.87012 1.7778-0.87012 0.66602 0 1.1387 0.26318 0.47802 0.25781 0.78955 0.79492zm-3.3677 2.1001q0 1.0903 0.4458 1.7134 0.45117 0.61768 1.2354 0.61768t1.2354-0.61768q0.45118-0.62305 0.45118-1.7134t-0.45118-1.708q-0.45117-0.62305-1.2354-0.62305t-1.2354 0.62305q-0.4458 0.61768-0.4458 1.708z" style="font-feature-settings:normal;font-variant-caps:normal;font-variant-ligatures:normal;font-variant-numeric:normal"/>
  <path d="m261.11 11.834v0.4834h-4.544q0.0645 1.0205 0.61231 1.5576 0.55322 0.53174 1.5361 0.53174 0.56934 0 1.1011-0.13965 0.53711-0.13965 1.0635-0.41895v0.93457q-0.53174 0.22559-1.0903 0.34375t-1.1333 0.11816q-1.4394 0-2.2827-0.83789-0.83789-0.83789-0.83789-2.2666 0-1.4771 0.79493-2.3418 0.80029-0.87012 2.1538-0.87012 1.2139 0 1.9175 0.78418 0.70898 0.77881 0.70898 2.1216zm-0.98828-0.29004q-0.0107-0.81104-0.45654-1.2944-0.44043-0.4834-1.1709-0.4834-0.82715 0-1.3267 0.46728-0.49414 0.46728-0.56934 1.3159z" style="font-feature-settings:normal;font-variant-caps:normal;font-variant-ligatures:normal;font-variant-numeric:normal"/>
  <path d="m267.05 12.087q0-1.0903-0.45117-1.708-0.4458-0.62305-1.23-0.62305t-1.2354 0.62305q-0.44581 0.61768-0.44581 1.708t0.44581 1.7134q0.45117 0.61768 1.2354 0.61768t1.23-0.61768q0.45117-0.62305 0.45117-1.7134zm-3.3623-2.1001q0.31153-0.53711 0.78418-0.79492 0.47803-0.26318 1.1387-0.26318 1.0957 0 1.7778 0.87012 0.6875 0.87012 0.6875 2.2881 0 1.418-0.6875 2.2881-0.68213 0.87012-1.7778 0.87012-0.66065 0-1.1387-0.25781-0.47265-0.26318-0.78418-0.80029v0.90234h-0.99365v-8.3574h0.99365z" style="font-feature-settings:normal;font-variant-caps:normal;font-variant-ligatures:normal;font-variant-numeric:normal"/>
  <path d="m269.72 9.0736h0.98828v6.0156h-0.98828zm0-2.3418h0.98828v1.2515h-0.98828z" style="font-feature-settings:normal;font-variant-caps:normal;font-variant-ligatures:normal;font-variant-numeric:normal"/>
  <path d="m275.51 12.065q-1.1978 0-1.6597 0.27393-0.46191 0.27393-0.46191 0.93457 0 0.52637 0.34375 0.83789 0.34912 0.30615 0.94531 0.30615 0.82178 0 1.3159-0.58008 0.49951-0.58545 0.49951-1.5522v-0.22022zm1.9712-0.4082v3.4321h-0.98828v-0.91309q-0.33838 0.54785-0.84326 0.81104-0.50488 0.25781-1.2354 0.25781-0.92383 0-1.4717-0.51562-0.54248-0.521-0.54248-1.3911 0-1.0151 0.67676-1.5308 0.68212-0.51562 2.0303-0.51562h1.3857v-0.09668q0-0.68213-0.45117-1.0527-0.4458-0.37598-1.2568-0.37598-0.51562 0-1.0044 0.12354-0.48877 0.12353-0.93994 0.37061v-0.91309q0.54248-0.20947 1.0527-0.31152 0.51026-0.10742 0.99365-0.10742 1.3052 0 1.9497 0.67676 0.64453 0.67676 0.64453 2.0518z" style="font-feature-settings:normal;font-variant-caps:normal;font-variant-ligatures:normal;font-variant-numeric:normal"/>
  <path d="m284.51 11.458v3.6309h-0.98828v-3.5986q0-0.854-0.333-1.2783-0.33301-0.42432-0.99903-0.42432-0.80029 0-1.2622 0.51025-0.46192 0.51025-0.46192 1.3911v3.3999h-0.99365v-6.0156h0.99365v0.93457q0.35449-0.54248 0.83252-0.81103 0.4834-0.26855 1.1118-0.26855 1.0366 0 1.5684 0.64453 0.53173 0.63916 0.53173 1.8853z" style="font-feature-settings:normal;font-variant-caps:normal;font-variant-ligatures:normal;font-variant-numeric:normal"/>
  <path d="m285.98 11.636h2.895v0.88086h-2.895z" style="font-feature-settings:normal;font-variant-caps:normal;font-variant-ligatures:normal;font-variant-numeric:normal"/>
  <path d="m290.45 6.7318h0.98829v8.3574h-0.98829z" style="font-feature-settings:normal;font-variant-caps:normal;font-variant-ligatures:normal;font-variant-numeric:normal"/>
  <path d="m296.24 12.065q-1.1978 0-1.6597 0.27393-0.46192 0.27393-0.46192 0.93457 0 0.52637 0.34375 0.83789 0.34912 0.30615 0.94531 0.30615 0.82178 0 1.3159-0.58008 0.49951-0.58545 0.49951-1.5522v-0.22022zm1.9712-0.4082v3.4321h-0.98829v-0.91309q-0.33838 0.54785-0.84326 0.81104-0.50488 0.25781-1.2354 0.25781-0.92383 0-1.4717-0.51562-0.54248-0.521-0.54248-1.3911 0-1.0151 0.67676-1.5308 0.68213-0.51562 2.0303-0.51562h1.3857v-0.09668q0-0.68213-0.45117-1.0527-0.4458-0.37598-1.2568-0.37598-0.51563 0-1.0044 0.12354-0.48877 0.12353-0.93994 0.37061v-0.91309q0.54248-0.20947 1.0527-0.31152 0.51026-0.10742 0.99366-0.10742 1.3052 0 1.9497 0.67676 0.64454 0.67676 0.64454 2.0518z" style="font-feature-settings:normal;font-variant-caps:normal;font-variant-ligatures:normal;font-variant-numeric:normal"/>
  <path d="m301.23 7.3656v1.708h2.0356v0.76807h-2.0356v3.2656q0 0.73584 0.19873 0.94531 0.2041 0.20947 0.82178 0.20947h1.0151v0.82715h-1.0151q-1.144 0-1.5791-0.42432-0.43505-0.42969-0.43505-1.5576v-3.2656h-0.7251v-0.76807h0.7251v-1.708z" style="font-feature-settings:normal;font-variant-caps:normal;font-variant-ligatures:normal;font-variant-numeric:normal"/>
  <path d="m309.71 11.834v0.4834h-4.544q0.0645 1.0205 0.61231 1.5576 0.55322 0.53174 1.5361 0.53174 0.56933 0 1.1011-0.13965 0.53711-0.13965 1.0635-0.41895v0.93457q-0.53174 0.22559-1.0903 0.34375-0.5586 0.11816-1.1333 0.11816-1.4395 0-2.2827-0.83789-0.83789-0.83789-0.83789-2.2666 0-1.4771 0.79492-2.3418 0.8003-0.87012 2.1538-0.87012 1.2139 0 1.9175 0.78418 0.70899 0.77881 0.70899 2.1216zm-0.98829-0.29004q-0.0107-0.81104-0.45654-1.2944-0.44043-0.4834-1.1709-0.4834-0.82715 0-1.3267 0.46728-0.49414 0.46728-0.56933 1.3159z" style="font-feature-settings:normal;font-variant-caps:normal;font-variant-ligatures:normal;font-variant-numeric:normal"/>
  <path d="m315.17 9.2508v0.93457q-0.41895-0.21484-0.87012-0.32227-0.45117-0.10742-0.93457-0.10742-0.73584 0-1.1064 0.22559-0.36523 0.22559-0.36523 0.67676 0 0.34375 0.26318 0.54248 0.26319 0.19336 1.0581 0.37061l0.33838 0.0752q1.0527 0.22559 1.4932 0.63916 0.4458 0.4082 0.4458 1.144 0 0.83789-0.66601 1.3267-0.66065 0.48877-1.8208 0.48877-0.4834 0-1.0098-0.09668-0.521-0.09131-1.1011-0.2793v-1.0205q0.54785 0.28467 1.0796 0.42969 0.53173 0.13965 1.0527 0.13965 0.69824 0 1.0742-0.23633 0.37598-0.2417 0.37598-0.67676 0-0.40283-0.27393-0.61768-0.26855-0.21484-1.187-0.41358l-0.34375-0.08057q-0.91846-0.19336-1.3267-0.59082-0.4082-0.40283-0.4082-1.1011 0-0.84863 0.60156-1.3105t1.708-0.46191q0.54785 0 1.0312 0.080566 0.48339 0.080566 0.8916 0.2417z" style="font-feature-settings:normal;font-variant-caps:normal;font-variant-ligatures:normal;font-variant-numeric:normal"/>
  <path d="m318.04 7.3656v1.708h2.0356v0.76807h-2.0356v3.2656q0 0.73584 0.19873 0.94531 0.2041 0.20947 0.82178 0.20947h1.0151v0.82715h-1.0151q-1.144 0-1.5791-0.42432-0.43506-0.42969-0.43506-1.5576v-3.2656h-0.7251v-0.76807h0.7251v-1.708z" style="font-feature-settings:normal;font-variant-caps:normal;font-variant-ligatures:normal;font-variant-numeric:normal"/>
  <path d="m320.87 11.636h2.895v0.88086h-2.895z" style="font-feature-settings:normal;font-variant-caps:normal;font-variant-ligatures:normal;font-variant-numeric:normal"/>
  <path d="m328.08 12.065q-1.1978 0-1.6597 0.27393-0.46192 0.27393-0.46192 0.93457 0 0.52637 0.34375 0.83789 0.34913 0.30615 0.94532 0.30615 0.82177 0 1.3159-0.58008 0.49952-0.58545 0.49952-1.5522v-0.22022zm1.9712-0.4082v3.4321h-0.98828v-0.91309q-0.33838 0.54785-0.84327 0.81104-0.50488 0.25781-1.2354 0.25781-0.92382 0-1.4717-0.51562-0.54248-0.521-0.54248-1.3911 0-1.0151 0.67676-1.5308 0.68213-0.51562 2.0303-0.51562h1.3858v-0.09668q0-0.68213-0.45118-1.0527-0.4458-0.37598-1.2568-0.37598-0.51563 0-1.0044 0.12354-0.48877 0.12353-0.93994 0.37061v-0.91309q0.54248-0.20947 1.0527-0.31152 0.51025-0.10742 0.99365-0.10742 1.3052 0 1.9497 0.67676 0.64453 0.67676 0.64453 2.0518z" style="font-feature-settings:normal;font-variant-caps:normal;font-variant-ligatures:normal;font-variant-numeric:normal"/>
  <path d="m336.41 9.3045v0.92383q-0.41894-0.23096-0.84326-0.34375-0.41894-0.11816-0.84863-0.11816-0.96143 0-1.4932 0.6123-0.53174 0.60693-0.53174 1.708 0 1.1011 0.53174 1.7134 0.53173 0.60693 1.4932 0.60693 0.42969 0 0.84863-0.11279 0.42432-0.11816 0.84326-0.34912v0.91309q-0.41357 0.19336-0.85937 0.29004-0.44043 0.09668-0.93994 0.09668-1.3589 0-2.1592-0.854-0.8003-0.854-0.8003-2.3042 0-1.4717 0.80567-2.3149 0.81103-0.84326 2.2183-0.84326 0.45654 0 0.8916 0.09668 0.43506 0.091309 0.84326 0.2793z" style="font-feature-settings:normal;font-variant-caps:normal;font-variant-ligatures:normal;font-variant-numeric:normal"/>
  <path d="m339.11 7.3656v1.708h2.0356v0.76807h-2.0356v3.2656q0 0.73584 0.19873 0.94531 0.2041 0.20947 0.82178 0.20947h1.0151v0.82715h-1.0151q-1.144 0-1.5791-0.42432-0.43506-0.42969-0.43506-1.5576v-3.2656h-0.7251v-0.76807h0.7251v-1.708z" style="font-feature-settings:normal;font-variant-caps:normal;font-variant-ligatures:normal;font-variant-numeric:normal"/>
  <path d="m342.44 9.0736h0.98828v6.0156h-0.98828zm0-2.3418h0.98828v1.2515h-0.98828z" style="font-feature-settings:normal;font-variant-caps:normal;font-variant-ligatures:normal;font-variant-numeric:normal"/>
  <path d="m347.83 9.7664q-0.79492 0-1.2568 0.62305-0.46191 0.61768-0.46191 1.6973 0 1.0796 0.45654 1.7026 0.46192 0.61768 1.2622 0.61768 0.78955 0 1.2515-0.62305 0.46192-0.62305 0.46192-1.6973 0-1.0688-0.46192-1.6919-0.46191-0.62842-1.2515-0.62842zm0-0.83789q1.2891 0 2.0249 0.83789 0.73584 0.83789 0.73584 2.3203 0 1.477-0.73584 2.3203-0.73584 0.83789-2.0249 0.83789-1.2944 0-2.0303-0.83789-0.73047-0.84326-0.73047-2.3203 0-1.4824 0.73047-2.3203 0.73584-0.83789 2.0303-0.83789z" style="font-feature-settings:normal;font-variant-caps:normal;font-variant-ligatures:normal;font-variant-numeric:normal"/>
  <path d="m357.23 11.458v3.6309h-0.98828v-3.5986q0-0.854-0.33301-1.2783-0.333-0.42432-0.99902-0.42432-0.80029 0-1.2622 0.51025-0.46191 0.51025-0.46191 1.3911v3.3999h-0.99365v-6.0156h0.99365v0.93457q0.35449-0.54248 0.83252-0.81103 0.4834-0.26855 1.1118-0.26855 1.0366 0 1.5684 0.64453 0.53174 0.63916 0.53174 1.8853z" style="font-feature-settings:normal;font-variant-caps:normal;font-variant-ligatures:normal;font-variant-numeric:normal"/>
 </g>
 <g fill="#fff" aria-label="roles-ansible/check-ansible-debian-latest-action">
  <path d="m99.459 9.2078q-0.1665-0.09668-0.36523-0.13965-0.19336-0.04834-0.42969-0.04834-0.83789 0-1.2891 0.54785-0.4458 0.54248-0.4458 1.563v3.1689h-0.99365v-6.0156h0.99365v0.93457q0.31152-0.54785 0.81104-0.81104 0.49951-0.26855 1.2139-0.26855 0.10205 0 0.22559 0.016113 0.12354 0.010742 0.27393 0.037598z"/>
  <path d="m102.58 8.9768q-0.79493 0-1.2568 0.62305-0.46191 0.61768-0.46191 1.6973 0 1.0796 0.45654 1.7026 0.46191 0.61768 1.2622 0.61768 0.78955 0 1.2515-0.62305t0.46191-1.6973q0-1.0688-0.46191-1.6919-0.46191-0.62842-1.2515-0.62842zm0-0.83789q1.2891 0 2.0249 0.83789t0.73584 2.3203q0 1.4771-0.73584 2.3203-0.73584 0.83789-2.0249 0.83789-1.2944 0-2.0303-0.83789-0.73047-0.84326-0.73047-2.3203 0-1.4824 0.73047-2.3203 0.73584-0.83789 2.0303-0.83789z"/>
  <path d="m106.98 5.9422h0.98828v8.3574h-0.98828z"/>
  <path d="m115.19 11.045v0.4834h-4.5439q0.0645 1.0205 0.6123 1.5576 0.55322 0.53174 1.5361 0.53174 0.56934 0 1.1011-0.13965 0.53711-0.13965 1.0635-0.41894v0.93457q-0.53173 0.22559-1.0903 0.34375-0.55859 0.11816-1.1333 0.11816-1.4394 0-2.2827-0.83789-0.83789-0.83789-0.83789-2.2666 0-1.4771 0.79492-2.3418 0.80029-0.87012 2.1538-0.87012 1.2139 0 1.9175 0.78418 0.70898 0.77881 0.70898 2.1216zm-0.98828-0.29004q-0.0107-0.81104-0.45654-1.2944-0.44043-0.4834-1.1709-0.4834-0.82715 0-1.3267 0.46729-0.49414 0.46729-0.56934 1.3159z"/>
  <path d="m120.64 8.4612v0.93457q-0.41894-0.21484-0.87011-0.32227-0.45118-0.10742-0.93457-0.10742-0.73584 0-1.1064 0.22559-0.36523 0.22559-0.36523 0.67676 0 0.34375 0.26318 0.54248 0.26318 0.19336 1.0581 0.3706l0.33838 0.0752q1.0527 0.22559 1.4932 0.63916 0.4458 0.4082 0.4458 1.144 0 0.83789-0.66602 1.3267-0.66064 0.48877-1.8208 0.48877-0.4834 0-1.0098-0.09668-0.521-0.09131-1.1011-0.2793v-1.0205q0.54785 0.28467 1.0796 0.42969 0.53174 0.13965 1.0527 0.13965 0.69824 0 1.0742-0.23633 0.37597-0.2417 0.37597-0.67676 0-0.40283-0.27392-0.61768-0.26856-0.21484-1.187-0.41357l-0.34375-0.08057q-0.91845-0.19336-1.3267-0.59082-0.4082-0.40283-0.4082-1.1011 0-0.84863 0.60156-1.3105 0.60157-0.46191 1.708-0.46191 0.54785 0 1.0312 0.080566t0.8916 0.2417z"/>
  <path d="m122.04 10.846h2.895v0.88086h-2.895z"/>
  <path d="m129.24 11.276q-1.1978 0-1.6597 0.27393-0.46192 0.27393-0.46192 0.93457 0 0.52637 0.34375 0.83789 0.34912 0.30615 0.94531 0.30615 0.82178 0 1.3159-0.58008 0.49951-0.58545 0.49951-1.5522v-0.22022zm1.9712-0.4082v3.4321h-0.98829v-0.91309q-0.33837 0.54785-0.84326 0.81104-0.50488 0.25781-1.2354 0.25781-0.92383 0-1.4717-0.51562-0.54248-0.521-0.54248-1.3911 0-1.0151 0.67676-1.5308 0.68213-0.51562 2.0303-0.51562h1.3857v-0.09668q0-0.68213-0.45117-1.0527-0.4458-0.37598-1.2568-0.37598-0.51563 0-1.0044 0.12354-0.48877 0.12354-0.93994 0.37061v-0.91309q0.54248-0.20947 1.0527-0.31152 0.51026-0.10742 0.99366-0.10742 1.3052 0 1.9497 0.67676 0.64454 0.67676 0.64454 2.0518z"/>
  <path d="m138.25 10.669v3.6309h-0.98828v-3.5986q0-0.854-0.33301-1.2783t-0.99902-0.42432q-0.8003 0-1.2622 0.51025-0.46192 0.51025-0.46192 1.3911v3.3999h-0.99365v-6.0156h0.99365v0.93457q0.3545-0.54248 0.83252-0.81104 0.4834-0.26855 1.1118-0.26855 1.0366 0 1.5684 0.64453 0.53174 0.63916 0.53174 1.8853z"/>
  <path d="m144.06 8.4612v0.93457q-0.41894-0.21484-0.87012-0.32227-0.45117-0.10742-0.93457-0.10742-0.73584 0-1.1064 0.22559-0.36524 0.22559-0.36524 0.67676 0 0.34375 0.26319 0.54248 0.26318 0.19336 1.0581 0.3706l0.33838 0.0752q1.0527 0.22559 1.4932 0.63916 0.4458 0.4082 0.4458 1.144 0 0.83789-0.66602 1.3267-0.66064 0.48877-1.8208 0.48877-0.4834 0-1.0098-0.09668-0.52099-0.09131-1.1011-0.2793v-1.0205q0.54785 0.28467 1.0796 0.42969 0.53174 0.13965 1.0527 0.13965 0.69825 0 1.0742-0.23633 0.37598-0.2417 0.37598-0.67676 0-0.40283-0.27393-0.61768-0.26855-0.21484-1.187-0.41357l-0.34375-0.08057q-0.91846-0.19336-1.3267-0.59082-0.4082-0.40283-0.4082-1.1011 0-0.84863 0.60156-1.3105 0.60156-0.46191 1.708-0.46191 0.54785 0 1.0312 0.080566t0.8916 0.2417z"/>
  <path d="m145.95 8.284h0.98828v6.0156h-0.98828zm0-2.3418h0.98828v1.2515h-0.98828z"/>
  <path d="m153.33 11.297q0-1.0903-0.45117-1.708-0.4458-0.62305-1.23-0.62305t-1.2354 0.62305q-0.4458 0.61768-0.4458 1.708t0.4458 1.7134q0.45118 0.61768 1.2354 0.61768t1.23-0.61768q0.45117-0.62305 0.45117-1.7134zm-3.3623-2.1001q0.31153-0.53711 0.78418-0.79492 0.47803-0.26318 1.1387-0.26318 1.0957 0 1.7778 0.87012 0.6875 0.87012 0.6875 2.2881 0 1.418-0.6875 2.2881-0.68213 0.87012-1.7778 0.87012-0.66065 0-1.1387-0.25781-0.47265-0.26318-0.78418-0.80029v0.90234h-0.99365v-8.3574h0.99365z"/>
  <path d="m155.99 5.9422h0.98828v8.3574h-0.98828z"/>
  <path d="m164.19 11.045v0.4834h-4.5439q0.0645 1.0205 0.6123 1.5576 0.55322 0.53174 1.5361 0.53174 0.56934 0 1.1011-0.13965 0.53711-0.13965 1.0635-0.41894v0.93457q-0.53173 0.22559-1.0903 0.34375-0.55859 0.11816-1.1333 0.11816-1.4394 0-2.2827-0.83789-0.83789-0.83789-0.83789-2.2666 0-1.4771 0.79492-2.3418 0.80029-0.87012 2.1538-0.87012 1.2139 0 1.9175 0.78418 0.70898 0.77881 0.70898 2.1216zm-0.98828-0.29004q-0.0107-0.81104-0.45654-1.2944-0.44043-0.4834-1.1709-0.4834-0.82715 0-1.3267 0.46729-0.49414 0.46729-0.56934 1.3159z"/>
  <path d="m167.57 6.2806h0.91308l-2.793 9.0396h-0.91309z"/>
  <path d="m173.85 8.5149v0.92383q-0.41895-0.23096-0.84326-0.34375-0.41895-0.11816-0.84864-0.11816-0.96142 0-1.4932 0.6123-0.53174 0.60693-0.53174 1.708 0 1.1011 0.53174 1.7134 0.53174 0.60693 1.4932 0.60693 0.42969 0 0.84864-0.11279 0.42431-0.11816 0.84326-0.34912v0.91309q-0.41358 0.19336-0.85938 0.29004-0.44043 0.09668-0.93994 0.09668-1.3589 0-2.1592-0.854t-0.80029-2.3042q0-1.4717 0.80566-2.3149 0.81104-0.84326 2.2183-0.84326 0.45655 0 0.89161 0.09668 0.43505 0.091309 0.84326 0.2793z"/>
  <path d="m180.57 10.669v3.6309h-0.98829v-3.5986q0-0.854-0.333-1.2783-0.33301-0.42432-0.99903-0.42432-0.80029 0-1.2622 0.51025-0.46192 0.51025-0.46192 1.3911v3.3999h-0.99365v-8.3574h0.99365v3.2764q0.35449-0.54248 0.83252-0.81104 0.4834-0.26855 1.1118-0.26855 1.0366 0 1.5684 0.64453 0.53174 0.63916 0.53174 1.8853z"/>
  <path d="m187.68 11.045v0.4834h-4.544q0.0644 1.0205 0.6123 1.5576 0.55323 0.53174 1.5361 0.53174 0.56933 0 1.1011-0.13965 0.53711-0.13965 1.0635-0.41894v0.93457q-0.53174 0.22559-1.0903 0.34375-0.5586 0.11816-1.1333 0.11816-1.4395 0-2.2827-0.83789-0.83789-0.83789-0.83789-2.2666 0-1.4771 0.79492-2.3418 0.80029-0.87012 2.1538-0.87012 1.2139 0 1.9175 0.78418 0.70899 0.77881 0.70899 2.1216zm-0.98829-0.29004q-0.0107-0.81104-0.45654-1.2944-0.44043-0.4834-1.1709-0.4834-0.82715 0-1.3267 0.46729-0.49414 0.46729-0.56933 1.3159z"/>
  <path d="m193.64 8.5149v0.92383q-0.41895-0.23096-0.84326-0.34375-0.41895-0.11816-0.84864-0.11816-0.96142 0-1.4932 0.6123-0.53174 0.60693-0.53174 1.708 0 1.1011 0.53174 1.7134 0.53174 0.60693 1.4932 0.60693 0.42969 0 0.84864-0.11279 0.42431-0.11816 0.84326-0.34912v0.91309q-0.41358 0.19336-0.85938 0.29004-0.44043 0.09668-0.93994 0.09668-1.3589 0-2.1592-0.854t-0.80029-2.3042q0-1.4717 0.80566-2.3149 0.81104-0.84326 2.2183-0.84326 0.45655 0 0.89161 0.09668 0.43505 0.091309 0.84326 0.2793z"/>
  <path d="m195.32 5.9422h0.99365v4.936l2.9487-2.5942h1.2622l-3.1904 2.8145 3.3247 3.2012h-1.2891l-3.0562-2.938v2.938h-0.99365z"/>
  <path d="m201.23 10.846h2.895v0.88086h-2.895z"/>
  <path d="m208.43 11.276q-1.1978 0-1.6597 0.27393-0.46191 0.27393-0.46191 0.93457 0 0.52637 0.34375 0.83789 0.34912 0.30615 0.94531 0.30615 0.82178 0 1.3159-0.58008 0.49951-0.58545 0.49951-1.5522v-0.22022zm1.9712-0.4082v3.4321h-0.98828v-0.91309q-0.33838 0.54785-0.84326 0.81104-0.50489 0.25781-1.2354 0.25781-0.92383 0-1.4717-0.51562-0.54248-0.521-0.54248-1.3911 0-1.0151 0.67675-1.5308 0.68213-0.51562 2.0303-0.51562h1.3857v-0.09668q0-0.68213-0.45117-1.0527-0.4458-0.37598-1.2568-0.37598-0.51562 0-1.0044 0.12354-0.48877 0.12354-0.93994 0.37061v-0.91309q0.54248-0.20947 1.0527-0.31152 0.51025-0.10742 0.99365-0.10742 1.3052 0 1.9497 0.67676t0.64453 2.0518z"/>
  <path d="m217.44 10.669v3.6309h-0.98828v-3.5986q0-0.854-0.33301-1.2783-0.333-0.42432-0.99902-0.42432-0.80029 0-1.2622 0.51025-0.46191 0.51025-0.46191 1.3911v3.3999h-0.99365v-6.0156h0.99365v0.93457q0.35449-0.54248 0.83252-0.81104 0.4834-0.26855 1.1118-0.26855 1.0366 0 1.5684 0.64453 0.53173 0.63916 0.53173 1.8853z"/>
  <path d="m223.24 8.4612v0.93457q-0.41895-0.21484-0.87012-0.32227-0.45117-0.10742-0.93457-0.10742-0.73584 0-1.1064 0.22559-0.36523 0.22559-0.36523 0.67676 0 0.34375 0.26318 0.54248 0.26319 0.19336 1.0581 0.3706l0.33838 0.0752q1.0527 0.22559 1.4932 0.63916 0.4458 0.4082 0.4458 1.144 0 0.83789-0.66601 1.3267-0.66065 0.48877-1.8208 0.48877-0.48339 0-1.0098-0.09668-0.521-0.09131-1.1011-0.2793v-1.0205q0.54785 0.28467 1.0796 0.42969 0.53174 0.13965 1.0527 0.13965 0.69824 0 1.0742-0.23633 0.37597-0.2417 0.37597-0.67676 0-0.40283-0.27392-0.61768-0.26856-0.21484-1.187-0.41357l-0.34375-0.08057q-0.91846-0.19336-1.3267-0.59082-0.40821-0.40283-0.40821-1.1011 0-0.84863 0.60157-1.3105 0.60156-0.46191 1.708-0.46191 0.54786 0 1.0312 0.080566 0.4834 0.080566 0.89161 0.2417z"/>
  <path d="m225.14 8.284h0.98828v6.0156h-0.98828zm0-2.3418h0.98828v1.2515h-0.98828z"/>
  <path d="m232.51 11.297q0-1.0903-0.45117-1.708-0.4458-0.62305-1.23-0.62305t-1.2354 0.62305q-0.4458 0.61768-0.4458 1.708t0.4458 1.7134q0.45117 0.61768 1.2354 0.61768t1.23-0.61768q0.45117-0.62305 0.45117-1.7134zm-3.3623-2.1001q0.31152-0.53711 0.78418-0.79492 0.47803-0.26318 1.1387-0.26318 1.0957 0 1.7778 0.87012 0.6875 0.87012 0.6875 2.2881 0 1.418-0.6875 2.2881-0.68213 0.87012-1.7778 0.87012-0.66064 0-1.1387-0.25781-0.47266-0.26318-0.78418-0.80029v0.90234h-0.99365v-8.3574h0.99365z"/>
  <path d="m235.18 5.9422h0.98828v8.3574h-0.98828z"/>
  <path d="m243.38 11.045v0.4834h-4.544q0.0644 1.0205 0.61231 1.5576 0.55322 0.53174 1.5361 0.53174 0.56933 0 1.1011-0.13965 0.53711-0.13965 1.0635-0.41894v0.93457q-0.53174 0.22559-1.0903 0.34375-0.5586 0.11816-1.1333 0.11816-1.4395 0-2.2827-0.83789-0.83789-0.83789-0.83789-2.2666 0-1.4771 0.79492-2.3418 0.8003-0.87012 2.1538-0.87012 1.2139 0 1.9175 0.78418 0.70899 0.77881 0.70899 2.1216zm-0.98829-0.29004q-0.0107-0.81104-0.45654-1.2944-0.44043-0.4834-1.1709-0.4834-0.82714 0-1.3267 0.46729-0.49414 0.46729-0.56933 1.3159z"/>
  <path d="m244.5 10.846h2.895v0.88086h-2.895z"/>
  <path d="m252.93 9.1971v-3.2549h0.98828v8.3574h-0.98828v-0.90234q-0.31152 0.53711-0.78955 0.80029-0.47266 0.25781-1.1387 0.25781-1.0903 0-1.7778-0.87012-0.68213-0.87012-0.68213-2.2881 0-1.418 0.68213-2.2881 0.6875-0.87012 1.7778-0.87012 0.66601 0 1.1387 0.26318 0.47803 0.25781 0.78955 0.79492zm-3.3677 2.1001q0 1.0903 0.4458 1.7134 0.45117 0.61768 1.2354 0.61768t1.2354-0.61768q0.45117-0.62305 0.45117-1.7134t-0.45117-1.708q-0.45117-0.62305-1.2354-0.62305t-1.2354 0.62305q-0.4458 0.61768-0.4458 1.708z"/>
  <path d="m261.1 11.045v0.4834h-4.5439q0.0644 1.0205 0.6123 1.5576 0.55323 0.53174 1.5361 0.53174 0.56933 0 1.1011-0.13965 0.53711-0.13965 1.0635-0.41894v0.93457q-0.53174 0.22559-1.0903 0.34375-0.5586 0.11816-1.1333 0.11816-1.4394 0-2.2827-0.83789-0.83789-0.83789-0.83789-2.2666 0-1.4771 0.79492-2.3418 0.80029-0.87012 2.1538-0.87012 1.2139 0 1.9175 0.78418 0.70898 0.77881 0.70898 2.1216zm-0.98828-0.29004q-0.0107-0.81104-0.45654-1.2944-0.44043-0.4834-1.1709-0.4834-0.82715 0-1.3267 0.46729-0.49414 0.46729-0.56933 1.3159z"/>
  <path d="m267.04 11.297q0-1.0903-0.45117-1.708-0.4458-0.62305-1.23-0.62305t-1.2354 0.62305q-0.4458 0.61768-0.4458 1.708t0.4458 1.7134q0.45117 0.61768 1.2354 0.61768t1.23-0.61768q0.45117-0.62305 0.45117-1.7134zm-3.3623-2.1001q0.31152-0.53711 0.78418-0.79492 0.47803-0.26318 1.1387-0.26318 1.0957 0 1.7778 0.87012 0.6875 0.87012 0.6875 2.2881 0 1.418-0.6875 2.2881-0.68213 0.87012-1.7778 0.87012-0.66064 0-1.1387-0.25781-0.47266-0.26318-0.78418-0.80029v0.90234h-0.99365v-8.3574h0.99365z"/>
  <path d="m269.7 8.284h0.98828v6.0156h-0.98828zm0-2.3418h0.98828v1.2515h-0.98828z"/>
  <path d="m275.49 11.276q-1.1978 0-1.6597 0.27393-0.46192 0.27393-0.46192 0.93457 0 0.52637 0.34375 0.83789 0.34912 0.30615 0.94532 0.30615 0.82177 0 1.3159-0.58008 0.49952-0.58545 0.49952-1.5522v-0.22022zm1.9712-0.4082v3.4321h-0.98828v-0.91309q-0.33838 0.54785-0.84327 0.81104-0.50488 0.25781-1.2354 0.25781-0.92383 0-1.4717-0.51562-0.54248-0.521-0.54248-1.3911 0-1.0151 0.67676-1.5308 0.68213-0.51562 2.0303-0.51562h1.3858v-0.09668q0-0.68213-0.45118-1.0527-0.4458-0.37598-1.2568-0.37598-0.51563 0-1.0044 0.12354-0.48877 0.12354-0.93994 0.37061v-0.91309q0.54248-0.20947 1.0527-0.31152 0.51025-0.10742 0.99365-0.10742 1.3052 0 1.9497 0.67676 0.64453 0.67676 0.64453 2.0518z"/>
  <path d="m284.5 10.669v3.6309h-0.98828v-3.5986q0-0.854-0.33301-1.2783t-0.99902-0.42432q-0.8003 0-1.2622 0.51025-0.46191 0.51025-0.46191 1.3911v3.3999h-0.99366v-6.0156h0.99366v0.93457q0.35449-0.54248 0.83252-0.81104 0.48339-0.26855 1.1118-0.26855 1.0366 0 1.5684 0.64453 0.53174 0.63916 0.53174 1.8853z"/>
  <path d="m285.97 10.846h2.895v0.88086h-2.895z"/>
  <path d="m290.44 5.9422h0.98828v8.3574h-0.98828z"/>
  <path d="m296.23 11.276q-1.1978 0-1.6597 0.27393t-0.46191 0.93457q0 0.52637 0.34375 0.83789 0.34912 0.30615 0.94531 0.30615 0.82178 0 1.3159-0.58008 0.49951-0.58545 0.49951-1.5522v-0.22022zm1.9712-0.4082v3.4321h-0.98828v-0.91309q-0.33838 0.54785-0.84326 0.81104-0.50489 0.25781-1.2354 0.25781-0.92383 0-1.4717-0.51562-0.54248-0.521-0.54248-1.3911 0-1.0151 0.67675-1.5308 0.68213-0.51562 2.0303-0.51562h1.3857v-0.09668q0-0.68213-0.45117-1.0527-0.4458-0.37598-1.2568-0.37598-0.51562 0-1.0044 0.12354-0.48877 0.12354-0.93994 0.37061v-0.91309q0.54248-0.20947 1.0527-0.31152 0.51025-0.10742 0.99365-0.10742 1.3052 0 1.9497 0.67676t0.64453 2.0518z"/>
  <path d="m301.21 6.576v1.708h2.0356v0.76807h-2.0356v3.2656q0 0.73584 0.19873 0.94531 0.20411 0.20947 0.82178 0.20947h1.0151v0.82715h-1.0151q-1.144 0-1.5791-0.42432-0.43506-0.42969-0.43506-1.5576v-3.2656h-0.7251v-0.76807h0.7251v-1.708z"/>
  <path d="m309.69 11.045v0.4834h-4.5439q0.0645 1.0205 0.6123 1.5576 0.55322 0.53174 1.5361 0.53174 0.56934 0 1.1011-0.13965 0.53711-0.13965 1.0635-0.41894v0.93457q-0.53173 0.22559-1.0903 0.34375-0.55859 0.11816-1.1333 0.11816-1.4394 0-2.2827-0.83789-0.83789-0.83789-0.83789-2.2666 0-1.4771 0.79492-2.3418 0.80029-0.87012 2.1538-0.87012 1.2139 0 1.9175 0.78418 0.70898 0.77881 0.70898 2.1216zm-0.98828-0.29004q-0.0107-0.81104-0.45654-1.2944-0.44043-0.4834-1.1709-0.4834-0.82715 0-1.3267 0.46729-0.49414 0.46729-0.56934 1.3159z"/>
  <path d="m315.15 8.4612v0.93457q-0.41894-0.21484-0.87012-0.32227-0.45117-0.10742-0.93457-0.10742-0.73584 0-1.1064 0.22559-0.36524 0.22559-0.36524 0.67676 0 0.34375 0.26319 0.54248 0.26318 0.19336 1.0581 0.3706l0.33838 0.0752q1.0527 0.22559 1.4932 0.63916 0.4458 0.4082 0.4458 1.144 0 0.83789-0.66602 1.3267-0.66064 0.48877-1.8208 0.48877-0.4834 0-1.0098-0.09668-0.521-0.09131-1.1011-0.2793v-1.0205q0.54785 0.28467 1.0796 0.42969 0.53174 0.13965 1.0527 0.13965 0.69824 0 1.0742-0.23633 0.37598-0.2417 0.37598-0.67676 0-0.40283-0.27392-0.61768-0.26856-0.21484-1.187-0.41357l-0.34375-0.08057q-0.91845-0.19336-1.3267-0.59082-0.4082-0.40283-0.4082-1.1011 0-0.84863 0.60156-1.3105 0.60157-0.46191 1.708-0.46191 0.54785 0 1.0312 0.080566t0.8916 0.2417z"/>
  <path d="m318.02 6.576v1.708h2.0356v0.76807h-2.0356v3.2656q0 0.73584 0.19873 0.94531 0.2041 0.20947 0.82177 0.20947h1.0151v0.82715h-1.0151q-1.144 0-1.5791-0.42432-0.43506-0.42969-0.43506-1.5576v-3.2656h-0.72509v-0.76807h0.72509v-1.708z"/>
  <path d="m320.86 10.846h2.895v0.88086h-2.895z"/>
  <path d="m328.06 11.276q-1.1978 0-1.6597 0.27393-0.46191 0.27393-0.46191 0.93457 0 0.52637 0.34375 0.83789 0.34912 0.30615 0.94531 0.30615 0.82178 0 1.3159-0.58008 0.49951-0.58545 0.49951-1.5522v-0.22022zm1.9712-0.4082v3.4321h-0.98828v-0.91309q-0.33838 0.54785-0.84326 0.81104-0.50488 0.25781-1.2354 0.25781-0.92383 0-1.4717-0.51562-0.54248-0.521-0.54248-1.3911 0-1.0151 0.67676-1.5308 0.68212-0.51562 2.0303-0.51562h1.3857v-0.09668q0-0.68213-0.45117-1.0527-0.4458-0.37598-1.2568-0.37598-0.51562 0-1.0044 0.12354-0.48877 0.12354-0.93994 0.37061v-0.91309q0.54248-0.20947 1.0527-0.31152 0.51026-0.10742 0.99365-0.10742 1.3052 0 1.9497 0.67676t0.64453 2.0518z"/>
  <path d="m336.4 8.5149v0.92383q-0.41895-0.23096-0.84326-0.34375-0.41895-0.11816-0.84864-0.11816-0.96142 0-1.4932 0.6123-0.53174 0.60693-0.53174 1.708 0 1.1011 0.53174 1.7134 0.53174 0.60693 1.4932 0.60693 0.42969 0 0.84864-0.11279 0.42431-0.11816 0.84326-0.34912v0.91309q-0.41358 0.19336-0.85938 0.29004-0.44043 0.09668-0.93994 0.09668-1.3589 0-2.1592-0.854-0.80029-0.854-0.80029-2.3042 0-1.4717 0.80566-2.3149 0.81104-0.84326 2.2183-0.84326 0.45654 0 0.8916 0.09668 0.43506 0.091309 0.84326 0.2793z"/>
  <path d="m339.1 6.576v1.708h2.0356v0.76807h-2.0356v3.2656q0 0.73584 0.19873 0.94531 0.2041 0.20947 0.82178 0.20947h1.0151v0.82715h-1.0151q-1.144 0-1.5791-0.42432-0.43505-0.42969-0.43505-1.5576v-3.2656h-0.7251v-0.76807h0.7251v-1.708z"/>
  <path d="m342.43 8.284h0.98828v6.0156h-0.98828zm0-2.3418h0.98828v1.2515h-0.98828z"/>
  <path d="m347.82 8.9768q-0.79492 0-1.2568 0.62305-0.46192 0.61768-0.46192 1.6973 0 1.0796 0.45655 1.7026 0.46191 0.61768 1.2622 0.61768 0.78955 0 1.2515-0.62305 0.46191-0.62305 0.46191-1.6973 0-1.0688-0.46191-1.6919-0.46192-0.62842-1.2515-0.62842zm0-0.83789q1.2891 0 2.0249 0.83789t0.73584 2.3203q0 1.4771-0.73584 2.3203-0.73584 0.83789-2.0249 0.83789-1.2944 0-2.0303-0.83789-0.73047-0.84326-0.73047-2.3203 0-1.4824 0.73047-2.3203 0.73584-0.83789 2.0303-0.83789z"/>
  <path d="m357.22 10.669v3.6309h-0.98828v-3.5986q0-0.854-0.33301-1.2783t-0.99902-0.42432q-0.8003 0-1.2622 0.51025-0.46192 0.51025-0.46192 1.3911v3.3999h-0.99365v-6.0156h0.99365v0.93457q0.3545-0.54248 0.83252-0.81104 0.4834-0.26855 1.1118-0.26855 1.0366 0 1.5684 0.64453 0.53174 0.63916 0.53174 1.8853z"/>
 </g>
</svg>
